# xmcd
#
# Track frame offsets:
#	150
#	23887
#	40700
#	61700
#	84025
#	102850
#	124487
#	145562
#	171475
#	190312
#	216300
#	237525
#
# Disc length: 3328 seconds
#
# Revision: 7
# Processed by: cddbd v1.5.2PL0 Copyright (c) Steve Scherf et al.
# Submitted via: EZCDAudioConverter 4.0.2.1
#
DISCID=a20cfe0c
DTITLE=齐秦 - 爱情宣言
DYEAR=1989
DGENRE=Pop
TTITLE0=爱情宣言
TTITLE1=别在窗前等我
TTITLE2=异乡游子
TTITLE3=原来的我
TTITLE4=珍重我爱
TTITLE5=撕裂的爱
TTITLE6=窗外
TTITLE7=不必勉强
TTITLE8=别对我寄望太多
TTITLE9=如果真的不要
TTITLE10=没有泪水的分离
TTITLE11=爱情宣言II
EXTD=
EXTT0=
EXTT1=
EXTT2=
EXTT3=
EXTT4=
EXTT5=
EXTT6=
EXTT7=
EXTT8=
EXTT9=
EXTT10=
EXTT11=
PLAYORDER=
